<svg xmlns="http://www.w3.org/2000/svg" xmlns:xlink="http://www.w3.org/1999/xlink" width="970" height="448" fill="none" xmlns:v="https://vecta.io/nano"><use xlink:href="#B" fill="#f3f4f5"/><use xlink:href="#B" fill="url(#A)"/><path fill-rule="evenodd" d="M87.557 30.785c-9.206.77-16.047 2.296-21.981 5.319a56 56 0 0 0-24.473 24.473c-.696 1.366-1.312 2.78-1.859 4.259a120.16 120.16 0 0 1 4.547-5.055 54 54 0 0 1 22.692-21.895c4.103-2.091 8.712-3.45 14.447-4.326 2.161-.976 4.369-1.901 6.626-2.775zM235.101 32l-8.66-2h304.505l-7.501 2H235.101zM40.148 379.497c.733 2.542 1.633 4.851 2.738 7.019a54 54 0 0 0 23.599 23.598c5.661 2.885 12.283 4.377 21.498 5.13 9.238.754 20.903.756 36.618.756h720.8c15.714 0 27.38-.002 36.618-.756 9.214-.753 15.837-2.245 21.497-5.13a54 54 0 0 0 23.599-23.598c2.884-5.661 4.377-12.284 5.13-21.498.754-9.238.756-20.904.756-36.618V119.6c0-15.714-.002-27.38-.756-36.618-.753-9.215-2.246-15.837-5.13-21.498a54 54 0 0 0-23.599-23.599c-5.66-2.884-12.283-4.376-21.497-5.129-3.291-.269-6.89-.442-10.87-.554l-4.168-2.094c17.722.308 28.593 1.486 37.443 5.995a56 56 0 0 1 24.473 24.473C935 72.556 935 88.237 935 119.6v208.8c0 31.363 0 47.044-6.104 59.023-5.369 10.538-13.936 19.104-24.473 24.473C892.444 418 876.763 418 845.4 418H124.6c-31.363 0-47.045 0-59.024-6.104-10.537-5.369-19.104-13.935-24.473-24.473-1.798-3.529-3.067-7.379-3.961-11.857a135.44 135.44 0 0 0 3.005 3.931z" fill="#161718"/><defs><radialGradient id="A" cx="0" cy="0" r="1" gradientUnits="userSpaceOnUse" gradientTransform="matrix(988.7985788141442,462.1752491589403,-456.679010351007,977.0396775488828,0.000303426,-6.19712)"><stop offset=".05" stop-color="#fff5fd"/><stop offset=".922" stop-color="#f6e2ff"/></radialGradient><path id="B" d="M226.311 29.969C62.369-8.451 0 70.136 0 202.86c0 134.47 23.166 213.057 162.16 239.252s195.298-44.852 348.547-22.149 318.304 38.482 400.615-51.019c83.457-90.747 77.473-250.094-15.29-321.121-68.562-52.496-209.61-61.513-327.22-28.332S390.252 68.39 226.311 29.969z"/></defs></svg>