<svg width="6" height="6" viewBox="0 0 6 6" fill="none" xmlns="http://www.w3.org/2000/svg">
<path d="M3 2.1L1.35 0.45C1.10147 0.201472 0.698528 0.201472 0.45 0.45C0.201472 0.698528 0.201472 1.10147 0.45 1.35L2.1 3L0.45 4.65C0.201472 4.89853 0.201472 5.30147 0.45 5.55C0.698528 5.79853 1.10147 5.79853 1.35 5.55L3 3.9L4.65 5.55C4.89853 5.79853 5.30147 5.79853 5.55 5.55C5.79853 5.30147 5.79853 4.89853 5.55 4.65L3.9 3L5.55 1.35C5.79853 1.10147 5.79853 0.698528 5.55 0.45C5.30147 0.201472 4.89853 0.201472 4.65 0.45L3 2.1Z" fill="white" fill-opacity="0.5"/>
</svg>
