<svg width="10" height="10" viewBox="0 0 10 10" fill="none" xmlns="http://www.w3.org/2000/svg">
<path d="M5 3.5L2.25 0.75C1.83579 0.335786 1.16421 0.335787 0.75 0.75C0.335787 1.16421 0.335786 1.83579 0.749999 2.25L3.5 5L0.75 7.75C0.335786 8.16421 0.335787 8.83579 0.75 9.25C1.16421 9.66421 1.83579 9.66421 2.25 9.25L5 6.5L7.75 9.25C8.16421 9.66421 8.83579 9.66421 9.25 9.25C9.66421 8.83579 9.66421 8.16421 9.25 7.75L6.5 5L9.25 2.25C9.66421 1.83579 9.66421 1.16421 9.25 0.75C8.83579 0.335787 8.16421 0.335786 7.75 0.749999L5 3.5Z" fill="#93999E"/>
</svg>
