<svg xmlns="http://www.w3.org/2000/svg" width="528" height="159" fill="#fff" xmlns:v="https://vecta.io/nano"><path fill-rule="evenodd" d="M63.052 51.969c-3.454-3.556-7.772-5.689-12.953-6.4 5.892-2.134 10.667-5.283 14.325-9.448 3.759-4.267 5.638-8.839 5.638-13.715 0-7.416-2.591-13.004-7.772-16.763S49.641.004 39.888.004c-7.01 0-13.156 1.118-18.439 3.353-5.181 2.235-9.194 5.181-12.039 8.839s-4.267 7.518-4.267 11.582c0 2.641.711 4.775 2.133 6.4 1.524 1.524 3.657 2.286 6.4 2.286 2.438 0 4.318-.559 5.638-1.676 1.422-1.219 2.489-3.2 3.2-5.943 1.524-6.705 6.553-10.058 15.087-10.058 7.721 0 11.582 2.794 11.582 8.382 0 4.064-1.524 7.569-4.572 10.515-2.946 2.845-7.772 4.775-14.477 5.791-2.134.406-3.657 1.168-4.572 2.286-.813 1.016-1.219 2.743-1.219 5.181 0 1.93.508 3.607 1.524 5.029 1.118 1.321 2.743 2.032 4.877 2.133 5.791.203 10.058 1.168 12.801 2.895 2.743 1.626 4.115 4.216 4.115 7.772 0 3.454-1.473 6.045-4.419 7.772-2.845 1.626-6.502 2.438-10.972 2.438-4.673 0-8.127-.711-10.363-2.133s-3.708-3.505-4.419-6.248c-.813-2.845-1.829-4.826-3.048-5.943-1.117-1.219-2.845-1.829-5.181-1.829-2.743 0-4.927.965-6.553 2.895C1.08 63.551.267 66.142.267 69.494c0 5.791 2.743 10.616 8.229 14.477 5.588 3.861 13.918 5.791 24.992 5.791 6.299 0 12.09-.914 17.373-2.743 5.384-1.93 9.651-4.724 12.801-8.381s4.724-8.077 4.724-13.258c0-5.385-1.778-9.855-5.334-13.41zm131.475 6.417c.471-11.103 2.31-21.725 5.517-31.866.914-2.946 2.387-5.08 4.419-6.4 2.032-1.422 4.978-2.134 8.839-2.134 2.032 0 3.454.254 4.267.762s1.219 1.473 1.219 2.895c0 1.626-.762 5.283-2.286 10.972-.813 3.353-1.575 7.416-2.286 12.191h19.506c1.016-4.775 2.489-10.87 4.419-18.287.813-3.048 2.032-5.232 3.658-6.553 1.727-1.321 4.267-1.981 7.619-1.981 2.337 0 3.962.305 4.877.914.914.508 1.371 1.524 1.371 3.048 0 2.54-1.27 9.499-3.81 20.878-2.844 13.004-4.266 21.03-4.266 24.078 0 1.93.406 3.454 1.219 4.572.425.532.921.925 1.486 1.178l-.332.141c-1.39.59-2.849 1.209-4.462 1.706a94.73 94.73 0 0 1-3.057.867c-3.882 1.053-7.65 2.076-10.868 5.029-.804-2.767-1.207-6.147-1.207-10.14 0-2.743.254-6.045.762-9.905-8.94 0-15.137-.102-18.591-.305-.203 2.845-.305 4.826-.305 5.943v3.2c-.102 6.299-.254 10.718-.457 13.258s-.813 4.419-1.829 5.639c-1.016 1.117-2.692 1.676-5.029 1.676-3.86 0-6.603-2.032-8.229-6.096-.824-2.197-1.425-5.106-1.803-8.728l-13.401 9.185-9.753 6.553c-3.861 21.03-8.94 37.539-15.239 49.527-6.197 12.09-14.122 18.135-23.773 18.135-5.181 0-9.397-1.626-12.648-4.877-3.251-3.149-4.877-7.315-4.877-12.496 0-7.213 2.845-14.985 8.534-23.316 5.689-8.229 16.357-18.388 32.002-30.478l.914-5.943c-1.727 2.743-4.013 4.876-6.857 6.4-2.743 1.422-5.486 2.133-8.229 2.133-6.299 0-11.328-2.286-15.087-6.858s-5.638-10.566-5.638-17.982c0-8.127 1.879-15.798 5.638-23.011 3.759-7.315 8.737-13.156 14.934-17.525 6.299-4.47 12.953-6.705 19.963-6.705 2.235 0 3.708.457 4.42 1.372.812.813 1.473 2.337 1.981 4.572 1.93-.406 4.165-.61 6.705-.61s4.318.406 5.334 1.219c1.117.711 1.676 2.184 1.676 4.419 0 1.219-.051 2.184-.153 2.895-.406 3.149-1.676 11.125-3.809 23.925l-1.372 8.077-1.371 9.143c6.813-5.309 13.394-10.078 19.745-14.308zm73.477 28.142c3.459 2.156 7.606 3.234 12.442 3.234 14.63 0 26.668-8.889 36.117-26.668h.304c-.609 3.454-.914 6.654-.914 9.601 0 5.486 1.118 9.702 3.353 12.648s5.435 4.419 9.6 4.419c4.775 0 9.601-1.524 14.477-4.572s9.956-7.67 15.239-13.867c1.93-2.235 2.896-5.385 2.896-9.448 0-2.133-.407-3.81-1.22-5.029-.711-1.219-1.727-1.829-3.047-1.829-1.626 0-2.997.711-4.115 2.133-4.876 5.892-8.686 10.007-11.429 12.344s-5.08 3.505-7.01 3.505c-1.422 0-2.54-.508-3.353-1.524-.711-1.118-1.066-2.642-1.066-4.572 0-4.064.406-8.432 1.219-13.106s1.981-10.261 3.505-16.763c1.625-6.502 2.54-11.023 2.743-13.563.203-1.625-.305-2.895-1.524-3.81-1.118-1.016-2.692-1.524-4.724-1.524-3.556 0-5.893.762-7.01 2.286-5.791-1.727-11.429-2.591-16.915-2.591-7.823 0-13.919 2.083-18.287 6.248-4.369 4.064-6.553 9.855-6.553 17.373 0 6.502 1.778 11.683 5.334 15.544 3.657 3.861 8.534 5.791 14.629 5.791h1.981c-3.149 3.657-6.349 6.502-9.6 8.534-3.251 1.93-6.452 2.895-9.601 2.895-2.438 0-4.368-1.067-5.791-3.2-.715-1.073-1.251-2.288-1.606-3.644.501-1.596.751-3.429.751-5.5 0-1.636-.238-3.003-.716-4.101.031-.255.047-.463.047-.623 0-2.946-1.828-4.419-5.486-4.419-4.165 0-7.467 1.524-9.905 4.572-2.256 2.942-3.423 6.926-3.501 11.952l-.097.087c-.611.544-1.205 1.026-1.781 1.449.615.013 1.247.084 1.901.226 1.153.251 2.377.722 3.71 1.484 2.71 1.549 4.221 4.147 4.881 7.011.531 2.303.511 4.778.122 7.017zM153.751 70.104c-2.134 2.845-4.369 4.267-6.705 4.267-2.235 0-4.013-.762-5.334-2.286-1.219-1.524-1.829-3.861-1.829-7.01 0-5.689 1.067-11.074 3.201-16.153s4.978-9.143 8.533-12.191c3.556-3.149 7.417-4.775 11.582-4.877l-4.876 26.059c-.915 5.283-2.439 9.347-4.572 12.191zm-10.82 64.308c-3.149 6.096-5.994 9.144-8.534 9.144-1.524 0-2.641-.559-3.352-1.677-.61-1.117-.915-2.539-.915-4.267 0-4.063 1.728-8.787 5.182-14.172s9.092-11.429 16.915-18.134c-2.946 13.309-6.045 23.011-9.296 29.106zm178.05-102.558c-2.032 6.807-4.775 13.207-8.229 19.201-1.626.203-3.099.305-4.419.305-2.845 0-5.233-.965-7.163-2.895-1.828-1.93-2.743-4.318-2.743-7.162 0-3.556 1.118-6.299 3.353-8.229s5.384-2.895 9.448-2.895c2.845 0 6.096.559 9.753 1.676z"/><path d="M266.28 119.738c.572 0 1.012.286 1.32.858s.462 1.298.462 2.178c0 1.1-.154 1.958-.462 2.574-.308.572-.792.968-1.452 1.188-3.168 1.1-6.512 1.65-10.032 1.65-1.144 3.916-2.948 6.908-5.412 8.976-2.42 2.068-5.302 3.102-8.646 3.102-3.608 0-6.424-1.056-8.448-3.168-2.024-2.156-3.036-5.434-3.036-9.834 0-3.3.594-6.248 1.782-8.844 1.232-2.64 2.882-4.686 4.95-6.138 2.068-1.496 4.356-2.244 6.864-2.244 1.32 0 2.464.242 3.432.726a22.18 22.18 0 0 0-2.112-2.904c-.748-.924-1.738-2.068-2.97-3.432-1.584-1.76-2.816-3.19-3.696-4.29s-1.628-2.31-2.244-3.63c-.616-1.364-.924-2.772-.924-4.224 0-2.024.572-3.63 1.716-4.818 1.144-1.232 2.552-2.156 4.224-2.772s3.916-1.254 6.732-1.914l4.29-1.122c1.452-.44 2.662-.902 3.63-1.386.264-.132.528-.198.792-.198.616 0 1.1.396 1.452 1.188.396.792.594 1.716.594 2.772 0 .748-.11 1.43-.33 2.046-.22.572-.528.99-.924 1.254-1.144.748-2.398 1.298-3.762 1.65-1.32.308-2.926.594-4.818.858-2.068.308-3.586.66-4.554 1.056-.924.352-1.386 1.056-1.386 2.112 0 .704.33 1.518.99 2.442.704.88 1.782 2.112 3.234 3.696 1.936 2.112 3.564 4.026 4.884 5.742 1.32 1.672 2.464 3.652 3.432 5.94 1.012 2.244 1.518 4.642 1.518 7.194 0 .748-.044 1.826-.132 3.234 2.42-.132 5.126-.594 8.118-1.386.264-.088.572-.132.924-.132zm-24.222 13.596c1.364 0 2.618-.748 3.762-2.244 1.188-1.54 2.134-3.52 2.838-5.94-.836-.924-1.474-1.98-1.914-3.168a11.61 11.61 0 0 1-.594-3.696c0-.396.044-.99.132-1.782l-1.254-.066c-1.1 0-2.134.462-3.102 1.386-.924.924-1.672 2.222-2.244 3.894-.572 1.628-.858 3.476-.858 5.544 0 1.936.242 3.432.726 4.488.528 1.056 1.364 1.584 2.508 1.584z"/><path d="M291.799 125.282c.572 0 1.012.264 1.32.792.352.528.528 1.254.528 2.178 0 1.76-.418 3.124-1.254 4.092-1.628 1.98-3.938 3.806-6.93 5.478a18.95 18.95 0 0 1-9.504 2.508c-4.62 0-8.206-1.254-10.758-3.762s-3.828-5.94-3.828-10.296c0-3.036.638-5.852 1.914-8.448 1.276-2.64 3.036-4.73 5.28-6.27 2.288-1.54 4.862-2.31 7.722-2.31 2.552 0 4.598.77 6.138 2.31 1.54 1.496 2.31 3.542 2.31 6.138 0 3.036-1.1 5.654-3.3 7.854-2.156 2.156-5.83 3.872-11.022 5.148 1.1 2.024 3.19 3.036 6.27 3.036 1.98 0 4.224-.682 6.732-2.046 2.552-1.408 4.752-3.234 6.6-5.478.528-.616 1.122-.924 1.782-.924zm-16.632-9.57c-1.628 0-3.014.946-4.158 2.838-1.1 1.892-1.65 4.18-1.65 6.864v.132c2.596-.616 4.642-1.54 6.138-2.772s2.244-2.662 2.244-4.29c0-.836-.242-1.496-.726-1.98-.44-.528-1.056-.792-1.848-.792z"/><path d="M300.879 140.33c-4.312 0-7.678-1.21-10.098-3.63-2.376-2.464-3.564-5.698-3.564-9.702 0-3.564.704-6.688 2.112-9.372s3.234-4.752 5.478-6.204 4.598-2.178 7.062-2.178c2.42 0 4.29.726 5.61 2.178 1.364 1.408 2.046 3.234 2.046 5.478 0 1.848-.418 3.41-1.254 4.686-.792 1.276-1.848 1.914-3.168 1.914-.836 0-1.518-.198-2.046-.594-.484-.396-.726-.946-.726-1.65 0-.308.044-.66.132-1.056l.198-.858c.22-.66.33-1.276.33-1.848s-.154-1.012-.462-1.32c-.264-.308-.66-.462-1.188-.462-1.012 0-1.958.462-2.838 1.386-.88.88-1.584 2.09-2.112 3.63s-.792 3.234-.792 5.082c0 5.104 2.222 7.656 6.666 7.656 1.804 0 3.74-.594 5.808-1.782 2.112-1.232 4.18-3.058 6.204-5.478.528-.616 1.122-.924 1.782-.924.572 0 1.012.264 1.32.792.352.528.528 1.254.528 2.178 0 1.672-.418 3.036-1.254 4.092-2.068 2.552-4.554 4.532-7.458 5.94-2.86 1.364-5.632 2.046-8.316 2.046z"/><path d="M317.258 140.33c-1.672 0-2.86-.88-3.564-2.64-.66-1.76-.99-4.576-.99-8.448 0-5.72.814-11.154 2.442-16.302.396-1.276 1.034-2.2 1.914-2.772.924-.616 2.2-.924 3.828-.924.88 0 1.496.11 1.848.33s.528.638.528 1.254c0 .704-.33 2.288-.99 4.752-.44 1.76-.792 3.3-1.056 4.62s-.484 2.948-.66 4.884c1.452-3.784 3.08-6.864 4.884-9.24s3.564-4.07 5.28-5.082c1.76-1.012 3.366-1.518 4.818-1.518 2.86 0 4.29 1.43 4.29 4.29 0 1.716-.484 4.818-1.452 9.306-.836 3.828-1.254 6.358-1.254 7.59 0 1.76.638 2.64 1.914 2.64.88 0 1.914-.528 3.102-1.584 1.232-1.1 2.86-2.86 4.884-5.28.528-.616 1.122-.924 1.782-.924.572 0 1.012.264 1.32.792.352.528.528 1.254.528 2.178 0 1.76-.418 3.124-1.254 4.092-1.892 2.332-3.938 4.246-6.138 5.742-2.156 1.496-4.62 2.244-7.392 2.244-2.244 0-3.938-.638-5.082-1.914-1.144-1.32-1.716-3.212-1.716-5.676 0-1.232.308-3.432.924-6.6.572-2.772.858-4.686.858-5.742 0-.704-.242-1.056-.726-1.056-.572 0-1.386.748-2.442 2.244-1.012 1.452-2.068 3.388-3.168 5.808-1.056 2.42-1.914 4.972-2.574 7.656-.484 2.068-1.056 3.476-1.716 4.224-.616.704-1.606 1.056-2.97 1.056z"/><path d="M384.254 125.282c.572 0 1.012.264 1.32.792.352.528.528 1.254.528 2.178 0 1.76-.418 3.124-1.254 4.092l-3.828 4.158c-1.056 1.012-2.376 1.914-3.96 2.706-1.54.748-3.3 1.122-5.28 1.122-2.596 0-4.444-1.012-5.544-3.036-1.1-2.068-1.65-5.17-1.65-9.306l.264-6.006h-.132c-1.76 5.852-3.938 10.362-6.534 13.53-2.552 3.168-5.478 4.752-8.778 4.752-2.244 0-4.004-.814-5.28-2.442s-1.914-3.674-1.914-6.138c0-2.2.506-3.982 1.518-5.346s2.442-2.046 4.29-2.046c.836 0 1.452.176 1.848.528.44.352.616.836.528 1.452-.352 2.112-.528 3.564-.528 4.356 0 1.584.396 2.376 1.188 2.376.44 0 .924-.33 1.452-.99.572-.66 1.518-2.266 2.838-4.818 1.012-1.936 2.046-4.114 3.102-6.534 1.1-2.42 2.002-4.576 2.706-6.468.704-1.848 1.518-3.102 2.442-3.762.924-.704 2.244-1.056 3.96-1.056 1.672 0 2.904.33 3.696.99s1.188 1.738 1.188 3.234l-.132 4.884-.264 7.986c0 4.62.946 6.93 2.838 6.93.792 0 1.562-.374 2.31-1.122.792-.748 2.002-2.112 3.63-4.092l1.65-1.98c.528-.616 1.122-.924 1.782-.924z"/><path d="M389.011 140.33c-2.728 0-4.906-.99-6.534-2.97s-2.442-4.576-2.442-7.788a21.26 21.26 0 0 1 2.442-9.966c1.628-3.168 3.784-5.698 6.468-7.59 2.728-1.936 5.61-2.904 8.646-2.904.968 0 1.606.198 1.914.594.352.352.638 1.012.858 1.98.924-.176 1.892-.264 2.904-.264 2.156 0 3.234.77 3.234 2.31 0 .924-.33 3.124-.99 6.6-1.012 5.06-1.518 8.58-1.518 10.56 0 .66.154 1.188.462 1.584a1.69 1.69 0 0 0 1.32.594c.836 0 1.848-.528 3.036-1.584 1.188-1.1 2.794-2.86 4.818-5.28.528-.616 1.122-.924 1.782-.924.572 0 1.012.264 1.32.792.352.528.528 1.254.528 2.178 0 1.76-.418 3.124-1.254 4.092-1.804 2.244-3.718 4.136-5.742 5.676s-3.982 2.31-5.874 2.31c-1.452 0-2.794-.484-4.026-1.452-1.188-1.012-2.09-2.376-2.706-4.092-2.288 3.696-5.17 5.544-8.646 5.544zm2.376-6.666c.968 0 1.892-.572 2.772-1.716s1.518-2.662 1.914-4.554l2.442-12.144c-1.848.044-3.564.748-5.148 2.112-1.54 1.32-2.772 3.08-3.696 5.28s-1.386 4.532-1.386 6.996c0 1.364.264 2.376.792 3.036.572.66 1.342.99 2.31.99z"/><path d="M416.581 140.33c-1.672 0-2.86-.88-3.564-2.64-.66-1.76-.99-4.576-.99-8.448 0-5.72.814-11.154 2.442-16.302.396-1.276 1.034-2.2 1.914-2.772.924-.616 2.2-.924 3.828-.924.88 0 1.496.11 1.848.33s.528.638.528 1.254c0 .704-.33 2.288-.99 4.752-.44 1.76-.792 3.3-1.056 4.62-.264 1.276-.484 2.882-.66 4.818 1.188-3.432 2.596-6.336 4.224-8.712 1.672-2.376 3.366-4.136 5.082-5.28 1.76-1.188 3.41-1.782 4.95-1.782s2.618.352 3.234 1.056c.66.704.99 1.782.99 3.234 0 1.408-.418 3.96-1.254 7.656-.352 1.584-.594 2.772-.726 3.564 2.2-5.412 4.642-9.35 7.326-11.814s5.192-3.696 7.524-3.696c2.86 0 4.29 1.43 4.29 4.29 0 1.716-.484 4.818-1.452 9.306-.836 3.828-1.254 6.358-1.254 7.59 0 1.76.638 2.64 1.914 2.64.88 0 1.914-.528 3.102-1.584 1.232-1.1 2.86-2.86 4.884-5.28.528-.616 1.122-.924 1.782-.924.572 0 1.012.264 1.32.792.352.528.528 1.254.528 2.178 0 1.76-.418 3.124-1.254 4.092-1.892 2.332-3.938 4.246-6.138 5.742-2.156 1.496-4.62 2.244-7.392 2.244-2.244 0-3.938-.638-5.082-1.914-1.144-1.32-1.716-3.212-1.716-5.676 0-1.232.308-3.432.924-6.6.572-2.772.858-4.686.858-5.742 0-.704-.242-1.056-.726-1.056-.572 0-1.386.748-2.442 2.244-1.056 1.452-2.112 3.388-3.168 5.808s-1.914 4.972-2.574 7.656c-.484 2.112-1.056 3.52-1.716 4.224-.616.704-1.628 1.056-3.036 1.056-1.452 0-2.552-.682-3.3-2.046-.704-1.408-1.056-3.102-1.056-5.082 0-1.672.22-4.092.66-7.26.352-2.816.528-4.664.528-5.544 0-.704-.242-1.056-.726-1.056-.66 0-1.496.792-2.508 2.376s-2.002 3.608-2.97 6.072c-.924 2.464-1.672 4.884-2.244 7.26-.484 2.068-1.056 3.476-1.716 4.224-.616.704-1.606 1.056-2.97 1.056z"/><path d="M495.856 125.282c.572 0 1.012.264 1.32.792.352.528.528 1.254.528 2.178 0 1.76-.418 3.124-1.254 4.092-2.024 2.332-4.114 4.246-6.27 5.742-2.112 1.496-4.532 2.244-7.26 2.244-2.288 0-3.894-.704-4.818-2.112s-1.386-3.52-1.386-6.336c0-1.188.11-2.618.33-4.29-3.872 0-6.556-.044-8.052-.132l-.132 2.574v1.386l-.198 5.742c-.088 1.1-.352 1.914-.792 2.442-.44.484-1.166.726-2.178.726-1.672 0-2.86-.88-3.564-2.64-.66-1.76-.99-4.576-.99-8.448 0-5.72.814-11.154 2.442-16.302.396-1.276 1.034-2.2 1.914-2.772.88-.616 2.156-.924 3.828-.924.88 0 1.496.11 1.848.33s.528.638.528 1.254c0 .704-.33 2.288-.99 4.752-.352 1.452-.682 3.212-.99 5.28h8.448c.44-2.068 1.078-4.708 1.914-7.92.352-1.32.88-2.266 1.584-2.838.748-.572 1.848-.858 3.3-.858 1.012 0 1.716.132 2.112.396.396.22.594.66.594 1.32 0 1.1-.55 4.114-1.65 9.042-1.232 5.632-1.848 9.108-1.848 10.428 0 .836.176 1.496.528 1.98.352.44.814.66 1.386.66.88 0 1.914-.528 3.102-1.584 1.232-1.1 2.86-2.86 4.884-5.28.528-.616 1.122-.924 1.782-.924z"/><path d="M525.992 119.738c.572 0 1.012.286 1.32.858s.462 1.298.462 2.178c0 2.112-.638 3.366-1.914 3.762-2.64.924-5.544 1.452-8.712 1.584-.836 3.696-2.486 6.666-4.95 8.91-2.464 2.2-5.258 3.3-8.382 3.3-2.64 0-4.906-.638-6.798-1.914-1.848-1.276-3.256-2.97-4.224-5.082s-1.452-4.4-1.452-6.864c0-3.344.638-6.314 1.914-8.91 1.276-2.64 3.036-4.686 5.28-6.138 2.244-1.496 4.73-2.244 7.458-2.244 3.344 0 6.028 1.166 8.052 3.498 2.068 2.288 3.278 5.126 3.63 8.514 2.068-.132 4.532-.572 7.392-1.32.352-.088.66-.132.924-.132zm-21.648 13.596c1.408 0 2.618-.572 3.63-1.716 1.056-1.144 1.76-2.794 2.112-4.95-1.364-.924-2.42-2.134-3.168-3.63-.704-1.496-1.056-3.08-1.056-4.752 0-.704.066-1.408.198-2.112h-.33c-1.76 0-3.234.858-4.422 2.574-1.144 1.672-1.716 4.048-1.716 7.128 0 2.42.462 4.268 1.386 5.544.968 1.276 2.09 1.914 3.366 1.914z"/></svg>