<svg xmlns="http://www.w3.org/2000/svg" xmlns:xlink="http://www.w3.org/1999/xlink" width="200" height="36" fill="none" xmlns:v="https://vecta.io/nano"><path fill-rule="evenodd" d="M9.981 32.463c1.404.431 3.225.461 8.101.461s6.697-.03 8.101-.461c3.246-.996 5.788-3.498 6.8-6.693.438-1.382.469-3.174.469-7.973s-.031-6.591-.469-7.973c-1.012-3.195-3.554-5.697-6.8-6.693-1.404-.431-3.225-.461-8.101-.461s-6.697.03-8.101.461c-3.246.996-5.788 3.498-6.8 6.693-.438 1.382-.468 3.174-.468 7.973s.031 6.591.468 7.973c1.012 3.195 3.554 5.697 6.8 6.693zM.591 9.029C0 10.897 0 13.197 0 17.797s0 6.9.591 8.767c1.277 4.033 4.485 7.191 8.583 8.447 1.898.582 4.234.582 8.908.582s7.01 0 8.908-.582c4.097-1.257 7.306-4.415 8.583-8.447.591-1.868.591-4.168.591-8.767s0-6.9-.591-8.767C34.296 4.997 31.087 1.839 26.99.582 25.092 0 22.755 0 18.082 0s-7.01 0-8.908.582C5.077 1.839 1.868 4.997.591 9.029z" fill="#397dff"/><g fill="#fff"><path d="M29.433 8.799c0-1.201-.989-2.175-2.21-2.175s-2.21.974-2.21 2.175.989 2.175 2.21 2.175 2.21-.974 2.21-2.175z"/><path fill-rule="evenodd" d="M16.368 8.108a2.08 2.08 0 0 1 3.529 0l2.59 4.235 4.893 1.115c1.512.345 2.108 2.149 1.09 3.303l-3.292 3.733.434 4.925c.134 1.522-1.426 2.637-2.855 2.041l-4.624-1.928-4.624 1.928c-1.429.596-2.989-.52-2.855-2.041l.434-4.925-3.292-3.733c-1.018-1.154-.422-2.959 1.09-3.303l4.893-1.115 2.59-4.235zm1.764 2.291l-2.173 3.553c-.287.47-.756.806-1.3.929l-4.105.936 2.762 3.132c.366.415.545.957.497 1.504l-.364 4.132 3.88-1.618a2.09 2.09 0 0 1 1.607 0l3.88 1.618-.364-4.132c-.048-.547.131-1.09.496-1.504l2.762-3.132-4.105-.936c-.543-.124-1.012-.459-1.3-.929l-2.173-3.553z"/><path d="M61.39 17.746c0-.814.659-1.473 1.473-1.473s1.473.659 1.473 1.473v7.868a1.35 1.35 0 1 1-2.7 0v-.069c-1.575 1.107-3.57 1.661-5.983 1.661-1.943 0-3.754-.423-5.431-1.268a9.96 9.96 0 0 1-3.989-3.684c-.982-1.631-1.473-3.554-1.473-5.768 0-2.094.491-3.966 1.473-5.617a10.47 10.47 0 0 1 4.112-3.866c1.759-.946 3.733-1.419 5.922-1.419 1.718 0 3.273.282 4.664.846a9.96 9.96 0 0 1 1.526.739c1.278.762 1.223 2.506.162 3.55-1.718-1.631-3.795-2.446-6.229-2.446-1.637 0-3.109.352-4.419 1.057-1.289.705-2.301 1.681-3.038 2.929s-1.105 2.658-1.105 4.228c0 1.671.368 3.121 1.105 4.349.757 1.228 1.749 2.164 2.976 2.809 1.227.624 2.557.936 3.989.936a8.94 8.94 0 0 0 2.915-.483 8.17 8.17 0 0 0 2.578-1.48v-4.869zm11.828-4.1c.511-.926 1.268-1.631 2.271-2.114.277-.133.57-.248.879-.345 1.481-.462 2.772.878 2.772 2.429a5.85 5.85 0 0 0-.675-.03c-1.596 0-2.854.473-3.774 1.419-.9.926-1.35 2.255-1.35 3.986v6.5c0 .813-.659 1.473-1.473 1.473s-1.473-.659-1.473-1.473V12.37a1.411 1.411 0 1 1 2.823 0v1.276zm23.886-2.688c.813 0 1.473.659 1.473 1.473v13.122a1.411 1.411 0 1 1-2.823 0v-1.125c-.655.886-1.483 1.56-2.486 2.023s-2.107.695-3.314.695c-1.575 0-2.987-.342-4.234-1.027s-2.23-1.641-2.946-2.869c-.696-1.248-1.043-2.678-1.043-4.288s.348-3.03 1.043-4.258c.716-1.228 1.698-2.184 2.946-2.869s2.659-1.027 4.234-1.027c1.166 0 2.24.221 3.222.664.982.423 1.8 1.057 2.455 1.903v-.943c0-.813.659-1.473 1.473-1.473zM90.2 24.609c1.023 0 1.954-.232 2.792-.695a5.15 5.15 0 0 0 1.964-1.993c.471-.866.706-1.852.706-2.96s-.235-2.084-.706-2.93a4.89 4.89 0 0 0-1.964-1.993c-.839-.463-1.77-.695-2.792-.695-1.043 0-1.984.232-2.823.695-.818.463-1.473 1.127-1.964 1.993-.471.846-.706 1.822-.706 2.93s.235 2.094.706 2.96c.491.846 1.145 1.51 1.964 1.993.839.463 1.78.695 2.823.695zm34.907-13.802c2.046 0 3.662.584 4.848 1.752 1.207 1.168 1.811 2.899 1.811 5.194v7.738c0 .813-.66 1.473-1.473 1.473s-1.473-.659-1.473-1.473v-7.406c0-1.55-.368-2.718-1.104-3.503-.716-.785-1.749-1.178-3.1-1.178-1.493 0-2.679.463-3.559 1.389-.88.906-1.319 2.215-1.319 3.926v6.772c0 .813-.66 1.473-1.473 1.473s-1.473-.659-1.473-1.473v-7.406c0-1.55-.368-2.718-1.105-3.503-.716-.785-1.749-1.178-3.099-1.178-1.493 0-2.68.463-3.559 1.389-.88.906-1.32 2.215-1.32 3.926v6.772c0 .813-.659 1.473-1.472 1.473s-1.473-.659-1.473-1.473V12.37a1.411 1.411 0 1 1 2.823 0v.974a5.57 5.57 0 0 1 2.332-1.872c.961-.443 2.055-.664 3.283-.664 1.268 0 2.393.252 3.375.755a5.29 5.29 0 0 1 2.271 2.205c.613-.926 1.462-1.651 2.547-2.174 1.104-.524 2.342-.785 3.712-.785zm19.382 16.399c-1.616 0-3.181-.242-4.695-.725-.478-.161-.923-.337-1.336-.527-1.41-.649-1.731-2.364-1.057-3.762.818.725 1.861 1.319 3.129 1.782a12.1 12.1 0 0 0 3.959.664c1.779 0 3.109-.292 3.989-.876.879-.604 1.319-1.399 1.319-2.386 0-.725-.245-1.309-.736-1.752-.471-.463-1.064-.815-1.78-1.057-.696-.242-1.688-.514-2.976-.816-1.616-.383-2.926-.765-3.928-1.148a6.69 6.69 0 0 1-2.547-1.752c-.695-.805-1.043-1.882-1.043-3.231 0-1.127.297-2.144.89-3.05.614-.906 1.534-1.631 2.761-2.174s2.752-.815 4.572-.815a14.69 14.69 0 0 1 3.744.483l.814.243c1.446.487 1.924 2.155 1.334 3.562-.9-.564-1.862-.987-2.885-1.268-1.022-.302-2.025-.453-3.007-.453-1.738 0-3.048.312-3.927.936-.859.624-1.289 1.429-1.289 2.416 0 .725.246 1.319.736 1.782.491.443 1.095.795 1.811 1.057.736.242 1.728.503 2.976.785 1.616.383 2.915.765 3.897 1.148a6.43 6.43 0 0 1 2.516 1.752c.716.785 1.074 1.842 1.074 3.171a5.41 5.41 0 0 1-.92 3.05c-.614.906-1.545 1.631-2.793 2.174-1.247.523-2.782.785-4.602.785zm20.809-2.84c.435.985.165 2.182-.862 2.508-.634.181-1.288.272-1.963.272-1.637 0-2.905-.433-3.805-1.299s-1.35-2.104-1.35-3.715V8.928c0-.813.659-1.473 1.472-1.473s1.473.659 1.473 1.473v2.03h3.471c.659 0 1.193.534 1.193 1.193s-.534 1.193-1.193 1.193h-3.471v8.668c0 .866.215 1.53.645 1.993.45.463 1.084.695 1.902.695.9 0 1.667-.252 2.301-.755l.187.421zm18.223-13.408c.813 0 1.472.659 1.472 1.473v13.122a1.412 1.412 0 1 1-2.823 0v-1.125a6.35 6.35 0 0 1-2.485 2.023c-1.002.463-2.107.695-3.314.695-1.575 0-2.987-.342-4.234-1.027a7.55 7.55 0 0 1-2.946-2.869c-.696-1.248-1.043-2.678-1.043-4.288s.347-3.03 1.043-4.258a7.55 7.55 0 0 1 2.946-2.869c1.247-.685 2.659-1.027 4.234-1.027 1.166 0 2.24.221 3.222.664.982.423 1.8 1.057 2.455 1.903v-.943c0-.813.659-1.473 1.473-1.473zm-6.904 13.651c1.022 0 1.953-.232 2.792-.695a5.15 5.15 0 0 0 1.964-1.993c.47-.866.705-1.852.705-2.96s-.235-2.084-.705-2.93a4.89 4.89 0 0 0-1.964-1.993c-.839-.463-1.77-.695-2.792-.695-1.044 0-1.985.232-2.823.695-.819.463-1.473 1.127-1.964 1.993-.471.846-.706 1.822-.706 2.93s.235 2.094.706 2.96a5.44 5.44 0 0 0 1.964 1.993c.838.463 1.779.695 2.823.695zm17.387-10.963c.511-.926 1.268-1.631 2.27-2.114.277-.133.57-.248.879-.345 1.481-.462 2.773.878 2.773 2.429a5.89 5.89 0 0 0-.675-.03c-1.596 0-2.854.473-3.775 1.419-.9.926-1.35 2.255-1.35 3.986v6.5c0 .813-.659 1.473-1.473 1.473a1.47 1.47 0 0 1-1.472-1.473V12.37a1.412 1.412 0 1 1 2.823 0v1.276z"/></g><g fill="#93999e"><path d="M45.419 31.117h2.688v.519H46.05v.835h1.021c.414 0 .728.086.942.257s.325.413.325.733c0 .337-.118.597-.355.781s-.574.272-1.011.272h-1.553v-3.397zm1.519 2.912c.247 0 .434-.047.562-.141s.192-.23.192-.408c0-.349-.252-.524-.755-.524h-.888v1.073h.888zm6.22-.044v.529h-2.589v-3.397h2.52v.529H51.21v.883h1.667v.519H51.21v.937h1.948zm4.058-1.242a.96.96 0 0 1 .483.316c.118.142.178.311.178.505a.78.78 0 0 1-.202.534c-.135.149-.316.264-.542.345a2.15 2.15 0 0 1-.735.121 2.72 2.72 0 0 1-.695-.092 2.39 2.39 0 0 1-.641-.286l.207-.461a1.87 1.87 0 0 0 .503.233 2.01 2.01 0 0 0 .547.078c.26 0 .475-.05.646-.151s.261-.238.261-.413c0-.149-.062-.262-.187-.34s-.297-.117-.518-.117h-.804v-.495h.755c.191 0 .34-.039.449-.117s.163-.183.163-.316c0-.159-.074-.281-.222-.369s-.33-.131-.557-.131c-.155 0-.314.023-.478.068a1.94 1.94 0 0 0-.464.189l-.202-.51a2.3 2.3 0 0 1 .562-.209c.201-.049.4-.073.597-.073.256 0 .492.039.705.116s.39.189.518.335a.73.73 0 0 1 .192.505.73.73 0 0 1-.138.442.88.88 0 0 1-.38.291zm4.514 1.82a2.01 2.01 0 0 1-.952-.223 1.71 1.71 0 0 1-.907-1.524c0-.33.081-.628.242-.893a1.69 1.69 0 0 1 .666-.626c.283-.149.6-.228.952-.228s.669.076.952.228.505.356.666.621.242.565.242.898-.081.633-.242.898a1.71 1.71 0 0 1-.666.626 2.01 2.01 0 0 1-.952.223zm0-.553a1.28 1.28 0 0 0 .621-.15 1.14 1.14 0 0 0 .434-.427 1.22 1.22 0 0 0 .158-.616c0-.227-.053-.43-.158-.611s-.25-.327-.434-.427a1.28 1.28 0 0 0-.621-.155 1.25 1.25 0 0 0-.621.155c-.184.103-.329.243-.434.427s-.158.385-.158.611a1.22 1.22 0 0 0 .158.616c.105.181.25.324.434.427s.391.15.621.15zm7.154-2.893v3.397h-.631V31.65h-1.79v2.864h-.631v-3.397h3.052zm4.791 2.611h-1.726l-.34.786h-.661l1.553-3.397h.631l1.558 3.397h-.671l-.345-.786zm-.212-.495l-.651-1.485-.646 1.485h1.297zm4.825 1.33a2 2 0 0 1-.947-.223 1.72 1.72 0 0 1-.898-1.524c0-.333.081-.633.242-.898s.381-.472.661-.621.598-.228.947-.228a2 2 0 0 1 .774.146 1.58 1.58 0 0 1 .592.422l-.414.383c-.25-.265-.557-.398-.922-.398-.237 0-.449.052-.636.155s-.334.241-.439.422-.158.387-.158.616.053.435.158.616a1.13 1.13 0 0 0 .439.427 1.33 1.33 0 0 0 .636.15 1.21 1.21 0 0 0 .922-.403l.414.388a1.57 1.57 0 0 1-.597.422 2 2 0 0 1-.774.146zm6.563-3.446v3.397h-.641v-1.456h-1.785v1.456h-.641v-3.397h.641v1.403h1.785v-1.403h.641zm4.094 3.446a2.01 2.01 0 0 1-.952-.223 1.71 1.71 0 0 1-.907-1.524c0-.33.081-.628.242-.893a1.69 1.69 0 0 1 .666-.626c.283-.149.6-.228.952-.228s.669.076.952.228.505.356.666.621.242.565.242.898-.081.633-.242.898a1.71 1.71 0 0 1-.666.626 2.01 2.01 0 0 1-.952.223zm0-.553a1.28 1.28 0 0 0 .621-.15c.184-.1.329-.246.434-.427a1.22 1.22 0 0 0 .158-.616c0-.227-.053-.43-.158-.611s-.25-.327-.434-.427a1.28 1.28 0 0 0-.621-.155 1.25 1.25 0 0 0-.621.155c-.184.103-.329.243-.434.427s-.158.385-.158.611a1.22 1.22 0 0 0 .158.616 1.14 1.14 0 0 0 .434.427 1.28 1.28 0 0 0 .621.15z"/><use xlink:href="#B"/><path d="M102.186 31.117a1.92 1.92 0 0 1 .779.146c.22.097.395.236.513.417s.178.396.178.645-.059.461-.178.645-.289.32-.513.417-.48.146-.779.146h-.779v.98h-.641v-3.397h1.42zM102.157 33c.279 0 .491-.058.636-.175s.217-.283.217-.5-.073-.383-.217-.5-.357-.175-.636-.175h-.75V33h.75zm5.749.728h-1.726l-.34.786h-.661l1.553-3.397h.631l1.559 3.397h-.671l-.345-.786zm-.212-.495l-.651-1.485-.646 1.485h1.297zm5.1-.49c.208.065.369.17.484.316a.79.79 0 0 1 .177.505.78.78 0 0 1-.202.534c-.135.149-.316.264-.542.345a2.15 2.15 0 0 1-.735.121 2.74 2.74 0 0 1-.695-.092 2.38 2.38 0 0 1-.642-.286l.208-.461a1.87 1.87 0 0 0 .503.233 2.01 2.01 0 0 0 .547.078c.26 0 .475-.05.646-.151s.261-.238.261-.413c0-.149-.062-.262-.187-.34s-.298-.117-.518-.117h-.804v-.495h.755c.191 0 .34-.039.449-.117a.37.37 0 0 0 .162-.316c0-.159-.074-.281-.222-.369s-.33-.131-.557-.131a1.81 1.81 0 0 0-.942.257l-.202-.51a2.33 2.33 0 0 1 .562-.209 2.65 2.65 0 0 1 .597-.073 2.07 2.07 0 0 1 .705.116 1.22 1.22 0 0 1 .518.335.73.73 0 0 1 .192.505.73.73 0 0 1-.138.442c-.092.126-.218.223-.38.291z"/><use xlink:href="#C"/><path d="M120.924 31.117h.631v2.412l1.854-2.412h.597v3.397h-.631v-2.407l-1.854 2.407h-.597v-3.397zm8.084.534h-1.144v2.864h-.636v-2.864h-1.14v-.534h2.92v.534zm2.086-.534h.632v2.412l1.854-2.412h.596v3.397h-.631v-2.407l-1.854 2.407h-.597v-3.397z"/><use xlink:href="#B" x="43.631"/><use xlink:href="#C" x="28.686"/><path d="M151.893 33.728h-1.726l-.34.786h-.661l1.554-3.397h.631l1.558 3.397h-.671l-.345-.786zm-.212-.495l-.651-1.485-.646 1.485h1.297zm7.724-2.116v3.397h-4.433v-3.397h.631v2.864h1.273v-2.864h.631v2.864h1.267v-2.864h.631z"/><use xlink:href="#B" x="68.862"/><path d="M166.741 31.117h.632v2.412l1.854-2.412h.596v3.397h-.631v-2.407l-1.854 2.407h-.597v-3.397zm1.534-.228c-.296 0-.519-.06-.671-.18s-.223-.294-.226-.524h.448a.36.36 0 0 0 .119.277c.076.065.185.097.33.097s.252-.032.33-.097a.36.36 0 0 0 .129-.277h.443c-.003.227-.082.401-.236.524s-.373.18-.666.18zm6.942.228h.631v2.412l1.854-2.412h.597v3.397h-.631v-2.407l-1.855 2.407h-.596v-3.397zm8.646 0v3.397h-.641v-1.456h-1.786v1.456h-.641v-3.397h.641v1.403h1.786v-1.403h.641zm4.085 3.446a2 2 0 0 1-.947-.223c-.28-.152-.5-.361-.661-.626a1.72 1.72 0 0 1-.237-.898c0-.333.081-.633.242-.898a1.68 1.68 0 0 1 .661-.621c.282-.152.598-.228.947-.228.282 0 .54.049.774.146a1.59 1.59 0 0 1 .592.422l-.415.383c-.25-.265-.557-.398-.922-.398a1.29 1.29 0 0 0-.636.155c-.187.1-.334.241-.439.422s-.158.387-.158.616.053.435.158.616a1.13 1.13 0 0 0 .439.427c.187.1.399.15.636.15a1.21 1.21 0 0 0 .922-.403l.415.388a1.58 1.58 0 0 1-.597.422 2 2 0 0 1-.774.146zm5.961-2.912h-1.144v2.864h-.636v-2.864h-1.139v-.534h2.919v.534zm3.675.616c.414 0 .731.092.951.277s.336.451.336.811c0 .375-.122.663-.365.864s-.585.296-1.026.296h-1.484v-3.397h.631v1.15h.957zm-.134 1.762c.25 0 .443-.057.577-.17s.203-.278.203-.495c0-.411-.26-.616-.78-.616h-.823v1.281h.823zm1.919-2.912H200v3.397h-.631v-3.397z"/></g><defs ><path id="B" d="M95.631 33.985v.529h-2.589v-3.397h2.52v.529h-1.879v.883h1.667v.519h-1.667v.937h1.948z"/><path id="C" d="M117.984 32.748c.221.058.388.159.503.301s.173.314.173.524c0 .298-.112.529-.335.694s-.548.247-.972.247h-1.637v-3.397h1.543c.388 0 .691.076.908.228a.74.74 0 0 1 .325.646c0 .178-.044.332-.133.461s-.21.228-.375.296zm-1.637-.18h.858c.207 0 .365-.04.474-.121a.42.42 0 0 0 .162-.359.42.42 0 0 0-.162-.359c-.109-.084-.267-.126-.474-.126h-.858v.966zm.986 1.461c.454 0 .681-.168.681-.505 0-.33-.227-.495-.681-.495h-.986v1h.986z"/></defs></svg>