<svg xmlns="http://www.w3.org/2000/svg" xmlns:xlink="http://www.w3.org/1999/xlink" width="1920" height="655" fill="none" xmlns:v="https://vecta.io/nano"><use xlink:href="#C" fill="url(#A)"/><use xlink:href="#C" fill="url(#B)"/><path fill-rule="evenodd" d="M726.168 582l8.832 2H463.6c-31.363 0-47.045 0-59.024-6.104-10.537-5.369-19.104-13.935-24.473-24.473-2.425-4.759-3.886-10.103-4.767-16.782h2.018c.864 6.407 2.27 11.436 4.531 15.874a54 54 0 0 0 23.599 23.599c5.661 2.885 12.283 4.377 21.498 5.13 9.238.754 20.903.756 36.618.756h262.568zm663.062 2h65.17c31.36 0 47.04 0 59.02-6.104 10.54-5.369 19.11-13.935 24.48-24.473 6.1-11.979 6.1-27.66 6.1-59.023V0h-2v494.4c0 15.714 0 27.38-.76 36.618-.75 9.214-2.24 15.837-5.13 21.497-5.17 10.161-13.43 18.422-23.59 23.599-5.67 2.885-12.29 4.377-21.5 5.13-9.24.754-20.91.756-36.62.756h-59.89l-5.28 2z" fill="#161718"/><defs><radialGradient id="A" cx="0" cy="0" r="1" gradientUnits="userSpaceOnUse" gradientTransform="translate(1297.7 556.654) rotate(-90) scale(556.654 912.796)"><stop offset=".145" stop-color="#fff"/><stop offset=".635" stop-color="#f3f4f5"/><stop offset=".969" stop-color="#dce0e3"/></radialGradient><radialGradient id="B" cx="0" cy="0" r="1" gradientUnits="userSpaceOnUse" gradientTransform="matrix(3.3411671227097494e-14,-545.654,894.758,5.478812603557437e-14,1297.7,556.654)"><stop offset=".109" stop-color="#fff"/><stop offset=".443" stop-color="#fceff9"/><stop offset="1" stop-color="#f6e2ff"/></radialGradient><path id="C" d="M735 584C538 539 196 479-8 655V0h1933v550c-179-71.5-332.6-61-491 15-198 95-475 70.167-699 19z"/></defs></svg>