<svg width="18" height="18" viewBox="0 0 18 18" fill="none" xmlns="http://www.w3.org/2000/svg">
<path d="M15 3L15.7071 3.70711L4.10051 15.3137L3.3934 14.6066L15 3Z" fill="#2B2D2F"/>
<path fill-rule="evenodd" clip-rule="evenodd" d="M12.2458 4.75417C11.2817 4.3005 10.1929 4 9 4C4.13401 4 1 9 1 9C1 9 2.28227 11.0457 4.47989 12.5201L5.20193 11.7981C4.70639 11.4803 4.25198 11.1229 3.84346 10.756C3.19976 10.1779 2.69446 9.59742 2.35078 9.16183C2.30609 9.10519 2.26424 9.05114 2.22528 9C2.26424 8.94886 2.30609 8.89481 2.35078 8.83817C2.69446 8.40258 3.19976 7.82212 3.84346 7.24398C5.14673 6.07344 6.91702 5 9 5C9.89043 5 10.7237 5.19616 11.4878 5.5122L12.2458 4.75417ZM9.06427 7.93573C9.02247 7.79784 9 7.65154 9 7.5C9 6.89135 9.36251 6.36736 9.88341 6.13218C9.60413 6.04625 9.30747 6 9 6C7.34315 6 6 7.34315 6 9C6 9.57217 6.16018 10.1069 6.43813 10.5619L9.06427 7.93573ZM7.09586 11.3184L9.66675 8.74746C9.90508 8.90698 10.1917 9 10.5 9C11.1087 9 11.6326 8.63749 11.8678 8.11659C11.9537 8.39587 12 8.69253 12 9C12 10.6569 10.6569 12 9 12C8.27705 12 7.61383 11.7443 7.09586 11.3184ZM6.10767 12.3065C6.97911 12.7271 7.94981 13 9 13C11.083 13 12.8533 11.9266 14.1565 10.756C14.8002 10.1779 15.3055 9.59742 15.6492 9.16183C15.6939 9.10519 15.7358 9.05114 15.7747 9C15.7358 8.94886 15.6939 8.89481 15.6492 8.83817C15.3055 8.40258 14.8002 7.82212 14.1565 7.24398C13.6499 6.78894 13.0727 6.34858 12.434 5.98024L13.1634 5.25086C15.5783 6.73187 17 9 17 9C17 9 13.866 14 9 14C7.64311 14 6.4209 13.6112 5.36376 13.0505L6.10767 12.3065Z" fill="#2B2D2F"/>
</svg>
