<svg width="41" height="40" viewBox="0 0 41 40" fill="none" xmlns="http://www.w3.org/2000/svg">
<path fill-rule="evenodd" clip-rule="evenodd" d="M11.0788 36.0335C12.6373 36.5115 14.6583 36.5453 20.0708 36.5453C25.4833 36.5453 27.5042 36.5115 29.0628 36.0335C32.6663 34.9283 35.488 32.1511 36.6109 28.6044C37.0966 27.0705 37.1309 25.0814 37.1309 19.7542C37.1309 14.4271 37.0966 12.438 36.6109 10.904C35.488 7.35738 32.6663 4.58014 29.0628 3.47496C27.5042 2.99696 25.4833 2.96314 20.0708 2.96314C14.6583 2.96314 12.6373 2.99696 11.0788 3.47496C7.47527 4.58014 4.65353 7.35738 3.53064 10.904C3.04498 12.438 3.01062 14.4271 3.01062 19.7542C3.01062 25.0814 3.04498 27.0705 3.53064 28.6044C4.65353 32.1511 7.47527 34.9283 11.0788 36.0335ZM0.656346 10.0225C0 12.0956 0 14.6485 0 19.7542C0 24.86 0 27.4129 0.656346 29.486C2.07358 33.9623 5.63501 37.4676 10.1831 38.8625C12.2894 39.5085 14.8832 39.5085 20.0708 39.5085C25.2584 39.5085 27.8522 39.5085 29.9585 38.8625C34.5065 37.4676 38.068 33.9623 39.4852 29.486C40.1415 27.4129 40.1415 24.86 40.1415 19.7542C40.1415 14.6485 40.1415 12.0956 39.4852 10.0225C38.068 5.54614 34.5065 2.04088 29.9585 0.645995C27.8522 0 25.2584 0 20.0708 0C14.8832 0 12.2894 0 10.1831 0.645995C5.63501 2.04088 2.07358 5.54614 0.656346 10.0225Z" fill="#397DFF"/>
<path d="M32.6708 9.76738C32.6708 8.43394 31.5725 7.35297 30.2177 7.35297C28.8629 7.35297 27.7646 8.43394 27.7646 9.76738C27.7646 11.1008 28.8629 12.1818 30.2177 12.1818C31.5725 12.1818 32.6708 11.1008 32.6708 9.76738Z" fill="#161718"/>
<path fill-rule="evenodd" clip-rule="evenodd" d="M18.1682 8.9997C19.0566 7.54674 21.1968 7.54674 22.0852 8.9997L24.9598 13.7009L30.3908 14.9389C32.0693 15.3215 32.7307 17.3248 31.6012 18.6054L27.9468 22.7489L28.4288 28.2152C28.5777 29.9046 26.8463 31.1428 25.2598 30.4813L20.1267 28.3409L14.9936 30.4813C13.4072 31.1428 11.6757 29.9046 11.8246 28.2152L12.3067 22.7489L8.65222 18.6054C7.52276 17.3248 8.18413 15.3215 9.86265 14.9389L15.2936 13.7009L18.1682 8.9997ZM20.1267 11.5432L17.7148 15.4877C17.3957 16.0097 16.8751 16.3819 16.2721 16.5194L11.7152 17.5581L14.7814 21.0347C15.1872 21.4948 15.3861 22.0971 15.3325 22.704L14.9281 27.2905L19.235 25.4946C19.805 25.257 20.4485 25.257 21.0184 25.4946L25.3253 27.2905L24.9209 22.704C24.8674 22.0971 25.0662 21.4948 25.472 21.0347L28.5382 17.5581L23.9813 16.5194C23.3783 16.3819 22.8577 16.0097 22.5386 15.4877L20.1267 11.5432Z" fill="#161718"/>
</svg>
