<svg xmlns="http://www.w3.org/2000/svg" width="18" height="18" fill="#2b2d2f" xmlns:v="https://vecta.io/nano"><path d="M12 9a3 3 0 1 1-6 0 3 3 0 0 1 3.883-2.868A1.5 1.5 0 0 0 10.5 9a1.5 1.5 0 0 0 1.368-.883A3 3 0 0 1 12 9z"/><path fill-rule="evenodd" d="M9 14c-4.866 0-8-5-8-5s3.134-5 8-5 8 5 8 5-3.134 5-8 5zM2.351 9.162L2.225 9l.125-.162c.344-.436.849-1.016 1.493-1.594C5.147 6.073 6.917 5 9 5s3.853 1.073 5.156 2.244c.644.578 1.149 1.159 1.493 1.594l.125.162-.125.162c-.344.436-.849 1.016-1.493 1.594C12.853 11.927 11.083 13 9 13s-3.853-1.073-5.157-2.244a12.95 12.95 0 0 1-1.493-1.594z"/></svg>