<svg xmlns="http://www.w3.org/2000/svg" width="36" height="36" fill="none" xmlns:v="https://vecta.io/nano"><path d="M1.636 17.318c0-7.392 0-11.089 2.297-13.385s5.993-2.297 13.385-2.297h1.364c7.393 0 11.089 0 13.385 2.297s2.297 5.993 2.297 13.385v1.364c0 7.392 0 11.089-2.297 13.385s-5.993 2.297-13.385 2.297h-1.364c-7.392 0-11.089 0-13.385-2.296s-2.297-5.993-2.297-13.385v-1.364z" fill="#2787f5"/><path fill-rule="evenodd" d="M10.501 11.864H8.114c-.682 0-.818.321-.818.675 0 .632.809 3.767 3.768 7.913 1.972 2.832 4.751 4.366 7.28 4.366 1.517 0 1.705-.341 1.705-.928v-2.14c0-.682.144-.818.624-.818.354 0 .961.177 2.377 1.542 1.618 1.618 1.885 2.344 2.795 2.344h2.387c.682 0 1.023-.341.826-1.014-.215-.671-.988-1.643-2.013-2.797-.556-.657-1.391-1.365-1.644-1.719-.354-.455-.253-.657 0-1.062 0 0 2.908-4.096 3.212-5.486.152-.506 0-.877-.722-.877h-2.387c-.607 0-.887.321-1.038.675 0 0-1.214 2.958-2.933 4.879-.556.556-.809.733-1.113.733-.152 0-.371-.177-.371-.683v-4.728c0-.607-.176-.877-.682-.877h-3.751c-.379 0-.607.282-.607.549 0 .575.86.708.948 2.326v3.514c0 .771-.139.91-.443.91-.809 0-2.777-2.971-3.945-6.371-.229-.661-.458-.928-1.068-.928z" fill="#fff"/></svg>