<svg xmlns="http://www.w3.org/2000/svg" width="36" height="36" fill="none" xmlns:v="https://vecta.io/nano"><path d="M34.364 18a16.37 16.37 0 0 1-13.807 16.165V22.73h3.813l.726-4.73h-4.538v-3.069c0-1.294.634-2.556 2.667-2.556h2.063V8.348s-1.873-.32-3.663-.32c-3.738 0-6.18 2.265-6.18 6.367V18h-4.155v4.73h4.155v11.435A16.37 16.37 0 0 1 1.636 18C1.636 8.963 8.963 1.636 18 1.636S34.364 8.963 34.364 18z" fill="#1877f2"/><path d="M24.37 22.73l.726-4.73h-4.538v-3.07c0-1.294.634-2.555 2.667-2.555h2.063V8.348s-1.873-.32-3.663-.32c-3.738 0-6.181 2.265-6.181 6.367V18h-4.155v4.73h4.155v11.435a16.49 16.49 0 0 0 2.557.199c.87 0 1.724-.068 2.557-.199V22.73h3.813z" fill="#fff"/></svg>