<svg xmlns="http://www.w3.org/2000/svg" width="36" height="36" fill="none" xmlns:v="https://vecta.io/nano"><path d="M9.307 18a8.64 8.64 0 0 1 1.223-4.441V8.042H5.013A16.24 16.24 0 0 0 1.636 18a16.24 16.24 0 0 0 3.376 9.958h5.517v-5.517A8.64 8.64 0 0 1 9.307 18z" fill="#fbbd00"/><path d="M18 26.693l-3.835 3.835L18 34.364a16.24 16.24 0 0 0 9.958-3.376v-5.511h-5.511c-1.312.779-2.837 1.217-4.447 1.217z" fill="#0f9d58"/><path d="M10.53 22.441l-5.517 5.517c.434.563.906 1.102 1.416 1.613 3.091 3.091 7.2 4.793 11.571 4.793v-7.67c-3.172 0-5.952-1.708-7.47-4.252z" fill="#31aa52"/><path d="M34.364 18a16.51 16.51 0 0 0-.268-2.964l-.144-.786H18v7.67h7.763c-.754 1.5-1.913 2.723-3.317 3.556l5.511 5.511a16.63 16.63 0 0 0 1.613-1.416c3.091-3.091 4.793-7.2 4.793-11.571z" fill="#3c79e6"/><path d="M24.147 11.853l.678.678 5.424-5.424-.678-.678C26.48 3.338 22.371 1.636 18 1.636l-3.835 3.835L18 9.307c2.322 0 4.505.904 6.147 2.546z" fill="#cf2d48"/><path d="M18 9.307v-7.67c-4.371 0-8.48 1.702-11.571 4.793a16.61 16.61 0 0 0-1.416 1.613l5.517 5.517c1.518-2.544 4.298-4.252 7.47-4.252z" fill="#eb4132"/></svg>