<svg xmlns="http://www.w3.org/2000/svg" width="613" height="537" fill="#161718" xmlns:v="https://vecta.io/nano"><path d="M130.527 29.003c63.339-40.445 178.196-42.714 291.856 43.953 40.187 30.643 74.051 37.68 102.083 42.441l4.993.839.004.001c25.678 4.293 45.9 7.673 61.745 27.547 28.614 35.888 20.154 71.505 7.782 105.525v5.771l1.188-3.199c12.764-34.663 22.452-71.894-7.406-109.344-16.339-20.492-37.304-23.99-62.822-28.248h-.004l-5.145-.864c-27.898-4.738-61.392-11.702-101.205-42.059C309.431-15.685 193.655-13.68 129.451 27.318a164.91 164.91 0 0 0-5.754 3.843h3.537l3.293-2.157zM28.99 246.982v-3.639l-.834 1.265c-39.466 59.523-35.829 132.926.834 187.92v-3.651c-34.426-53.672-37.506-124.236 0-181.895zm115.371 262.179h-6.333c96.62 32.952 237.37 40.053 384.243-3.041 42.276-12.404 67.05-37.869 77.041-67.508 7.181-21.301 6.702-44.689-.322-66.828v7.279c5.018 19.746 4.743 40.176-1.573 58.91-9.759 28.95-33.984 53.985-75.709 66.228-143.683 42.158-281.381 36.124-377.347 4.96z"/></svg>