<svg xmlns="http://www.w3.org/2000/svg" xmlns:xlink="http://www.w3.org/1999/xlink" width="274" height="123" fill="none" xmlns:v="https://vecta.io/nano"><style><![CDATA[.B{fill:#602c7a}.C{fill:#4932c5}]]></style><path d="M50.941 122.71c5.415 1.046 9.814-.696 12.521-5.923L44.511 114c-.338 3.136 1.015 7.665 6.43 8.71z" fill="#f8e8fc"/><use xlink:href="#B" class="B"/><use xlink:href="#B" class="C"/><use xlink:href="#C" class="B"/><use xlink:href="#C" class="C"/><use xlink:href="#D" class="B"/><use xlink:href="#D" class="C"/><use xlink:href="#E" class="B"/><use xlink:href="#E" class="C"/><use xlink:href="#F" class="B"/><use xlink:href="#F" class="C"/><use xlink:href="#G" class="B"/><use xlink:href="#G" class="C"/><use xlink:href="#H" class="B"/><use xlink:href="#H" class="C"/><use xlink:href="#I" class="B"/><use xlink:href="#I" class="C"/><use xlink:href="#J" class="B"/><use xlink:href="#J" class="C"/><use xlink:href="#K" class="B"/><use xlink:href="#K" class="C"/><use xlink:href="#L" class="B"/><use xlink:href="#L" class="C"/><g fill-rule="evenodd"><use xlink:href="#M" class="B"/><use xlink:href="#M" class="C"/><use xlink:href="#M" fill="url(#A)"/></g><defs><linearGradient id="A" x1="12" y1="36.363" x2="305.27" y2="36.363" gradientUnits="userSpaceOnUse"><stop stop-color="#397dff"/><stop offset=".849" stop-color="#4932c5" stop-opacity="0"/></linearGradient><path id="B" d="M3.614 96.129c-1.327 0-2.27-.707-2.829-2.122C.262 92.593 0 90.329 0 87.217c0-4.597.646-8.965 1.938-13.103.314-1.026.821-1.768 1.519-2.228.733-.495 1.746-.743 3.038-.743.698 0 1.187.088 1.467.265s.419.513.419 1.008c0 .566-.262 1.839-.786 3.819-.349 1.415-.629 2.652-.838 3.713s-.384 2.369-.524 3.925c1.152-3.041 2.444-5.517 3.876-7.427s2.829-3.271 4.191-4.085c1.397-.813 2.671-1.22 3.824-1.22 2.27 0 3.405 1.149 3.405 3.448 0 1.379-.384 3.872-1.152 7.48-.663 3.077-.995 5.11-.995 6.1 0 1.415.506 2.122 1.519 2.122.698 0 1.519-.424 2.462-1.273.978-.884 2.27-2.299 3.876-4.244.419-.495.891-.743 1.414-.743.454 0 .803.212 1.048.637.279.424.419 1.008.419 1.75 0 1.415-.332 2.511-.995 3.289-1.502 1.874-3.126 3.413-4.872 4.615-1.711 1.202-3.667 1.804-5.867 1.804-1.781 0-3.125-.513-4.033-1.538-.908-1.061-1.362-2.582-1.362-4.562 0-.99.244-2.758.733-5.305.454-2.228.681-3.766.681-4.615 0-.566-.192-.849-.576-.849-.454 0-1.1.601-1.938 1.804-.803 1.167-1.641 2.723-2.514 4.668-.838 1.945-1.519 3.996-2.043 6.153-.384 1.662-.838 2.794-1.362 3.395-.489.566-1.275.849-2.357.849z"/><path id="C" d="M52.596 79.579c.454 0 .803.23 1.048.69s.367 1.043.367 1.751c0 1.697-.506 2.705-1.519 3.024-2.095.743-4.4 1.167-6.914 1.273-.663 2.971-1.973 5.358-3.929 7.161-1.956 1.768-4.173 2.652-6.653 2.652-2.095 0-3.894-.513-5.395-1.538-1.467-1.026-2.584-2.387-3.352-4.085s-1.152-3.536-1.152-5.517c0-2.688.506-5.075 1.519-7.161 1.013-2.122 2.41-3.766 4.191-4.933 1.781-1.202 3.754-1.804 5.919-1.804 2.654 0 4.784.937 6.391 2.812 1.641 1.839 2.602 4.12 2.881 6.843 1.641-.106 3.597-.46 5.867-1.061.279-.071.524-.106.733-.106zM35.415 90.506c1.117 0 2.078-.46 2.881-1.379.838-.919 1.397-2.246 1.676-3.979a7.5 7.5 0 0 1-2.514-2.918c-.559-1.202-.838-2.475-.838-3.819a9.3 9.3 0 0 1 .157-1.698h-.262c-1.397 0-2.567.69-3.51 2.069-.908 1.344-1.362 3.254-1.362 5.729 0 1.945.367 3.43 1.1 4.456.768 1.026 1.659 1.538 2.672 1.538z"/><path id="D" d="M76.334 84.141c.454 0 .803.23 1.048.69.279.424.419.972.419 1.644 0 .813-.122 1.45-.367 1.91s-.629.866-1.152 1.22l-6.6 4.562-3.353 2.281c-1.327 7.321-3.073 13.067-5.238 17.24-2.13 4.209-4.854 6.313-8.172 6.313-1.781 0-3.23-.566-4.348-1.697-1.117-1.097-1.676-2.547-1.676-4.35 0-2.511.978-5.217 2.933-8.116 1.956-2.865 5.622-6.401 11-10.61l.314-2.069c-.594.955-1.379 1.698-2.357 2.228-.943.495-1.886.743-2.829.743-2.165 0-3.894-.796-5.186-2.387s-1.938-3.678-1.938-6.26a17.26 17.26 0 0 1 1.938-8.01c1.292-2.546 3.003-4.58 5.133-6.1 2.165-1.556 4.453-2.334 6.862-2.334.768 0 1.275.159 1.519.477.279.283.506.813.681 1.591.663-.141 1.432-.212 2.305-.212s1.484.142 1.833.424c.384.248.576.76.576 1.538 0 .424-.018.76-.052 1.008-.14 1.096-.576 3.872-1.31 8.328l-.471 2.811-.471 3.183c2.689-2.122 5.273-3.996 7.752-5.623.454-.283.855-.424 1.205-.424zm-18.491 6.631c.803 0 1.571-.495 2.305-1.485s1.257-2.405 1.571-4.244l1.676-9.071c-1.432.035-2.759.601-3.981 1.698-1.222 1.061-2.2 2.475-2.933 4.244s-1.1 3.643-1.1 5.623c0 1.096.21 1.91.629 2.44.454.531 1.065.796 1.833.796zm-4.348 24.083c.873 0 1.851-1.06 2.933-3.182 1.117-2.122 2.183-5.499 3.195-10.132-2.689 2.334-4.627 4.438-5.814 6.312s-1.781 3.519-1.781 4.934c0 .601.105 1.096.314 1.485.244.389.629.583 1.152.583z"/><path id="E" d="M77.737 96.129c-1.327 0-2.27-.707-2.829-2.122-.524-1.415-.786-3.678-.786-6.79 0-4.597.646-8.965 1.938-13.103.314-1.026.821-1.768 1.519-2.228.733-.495 1.746-.743 3.038-.743.698 0 1.187.088 1.467.265s.419.513.419 1.008c0 .566-.262 1.839-.786 3.819-.349 1.415-.629 2.652-.838 3.713s-.384 2.369-.524 3.925c1.152-3.041 2.444-5.517 3.876-7.427s2.829-3.271 4.191-4.085c1.397-.813 2.671-1.22 3.824-1.22 2.27 0 3.405 1.149 3.405 3.448 0 1.379-.384 3.872-1.152 7.48-.663 3.077-.995 5.11-.995 6.1 0 1.415.506 2.122 1.519 2.122.698 0 1.519-.424 2.462-1.273.978-.884 2.27-2.299 3.877-4.244.419-.495.89-.743 1.414-.743.454 0 .803.212 1.048.637.279.424.419 1.008.419 1.75 0 1.415-.332 2.511-.996 3.289-1.501 1.874-3.125 3.413-4.871 4.615-1.711 1.202-3.667 1.804-5.867 1.804-1.781 0-3.125-.513-4.033-1.538-.908-1.061-1.362-2.582-1.362-4.562 0-.99.245-2.758.733-5.305.454-2.228.681-3.766.681-4.615 0-.566-.192-.849-.576-.849-.454 0-1.1.601-1.938 1.804-.803 1.167-1.641 2.723-2.514 4.668-.838 1.945-1.519 3.996-2.043 6.153-.384 1.662-.838 2.794-1.362 3.395-.489.566-1.275.849-2.357.849z"/><path id="F" d="M105.347 96.129c-1.572 0-2.864-.725-3.877-2.175-.977-1.485-1.466-3.324-1.466-5.517 0-2.652.174-5.075.524-7.267.349-2.228.925-4.58 1.728-7.055.349-1.061.838-1.821 1.467-2.281s1.624-.69 2.986-.69c.768 0 1.292.124 1.571.371.314.248.471.619.471 1.114 0 .283-.192 1.238-.576 2.864l-.838 3.554-1.047 7.427c0 .743.087 1.273.261 1.591.175.283.454.424.839.424.523 0 1.169-.53 1.938-1.591.803-1.061 1.641-2.67 2.514-4.827.908-2.157 1.781-4.81 2.619-7.957.279-1.061.699-1.821 1.257-2.281.594-.46 1.467-.69 2.619-.69.804 0 1.362.106 1.677.318.314.177.471.53.471 1.061 0 .884-.437 3.307-1.31 7.267l-1.466 8.381c0 .672.139 1.202.419 1.591.279.354.646.53 1.1.53.698 0 1.519-.424 2.462-1.273.978-.884 2.27-2.299 3.876-4.244.419-.495.891-.743 1.414-.743.454 0 .804.212 1.048.637.279.424.419 1.008.419 1.75 0 1.415-.332 2.511-.995 3.289-1.502 1.874-3.126 3.413-4.872 4.615-1.711 1.202-3.666 1.804-5.866 1.804-1.677 0-2.916-.654-3.72-1.963-.768-1.309-1.152-3.147-1.152-5.517-.594 2.405-1.484 4.261-2.671 5.57-1.188 1.273-2.462 1.91-3.824 1.91z"/><path id="G" d="M134.205 96.129c-3.423 0-6.094-.973-8.015-2.918-1.886-1.98-2.829-4.58-2.829-7.798 0-2.865.559-5.375 1.677-7.533s2.566-3.819 4.347-4.986 3.65-1.751 5.605-1.751c1.921 0 3.405.584 4.453 1.751 1.082 1.132 1.624 2.599 1.624 4.403 0 1.485-.332 2.741-.996 3.766-.628 1.026-1.466 1.538-2.514 1.538-.664 0-1.205-.159-1.624-.477-.384-.318-.576-.76-.576-1.326 0-.248.035-.53.105-.849l.157-.69c.174-.53.262-1.025.262-1.485s-.122-.813-.367-1.061c-.209-.248-.524-.371-.943-.371-.803 0-1.554.371-2.252 1.114-.699.707-1.257 1.68-1.676 2.918s-.629 2.599-.629 4.085c0 4.102 1.764 6.153 5.291 6.153 1.431 0 2.968-.477 4.609-1.432 1.676-.99 3.318-2.458 4.924-4.403.419-.495.891-.743 1.414-.743.454 0 .804.212 1.048.637.279.424.419 1.008.419 1.75 0 1.344-.332 2.44-.995 3.289a17.25 17.25 0 0 1-5.919 4.774c-2.27 1.096-4.47 1.644-6.6 1.644z"/><path id="H" d="M175.385 84.034c.454 0 .803.212 1.048.637.279.424.419 1.008.419 1.75 0 1.309-.332 2.405-.995 3.289a17.22 17.22 0 0 1-6.181 5.145c-2.48 1.202-4.959 1.804-7.439 1.804-2.968 0-5.238-.619-6.809-1.857-1.537-1.273-2.305-3.147-2.305-5.623 0-2.405.768-4.509 2.305-6.312 1.571-1.839 3.824-3.784 6.757-5.835-.629.247-1.414.371-2.357.371-1.118 0-2.095-.301-2.934-.902-.803-.601-1.431-1.503-1.885-2.705-.873 3.961-2.008 7.073-3.405 9.336-1.257 2.051-2.445 3.731-3.562 5.039l-3.772 4.032c-.628.637-1.292.955-1.99.955-.559 0-1.013-.195-1.362-.584-.349-.424-.524-.937-.524-1.538 0-.707.245-1.362.734-1.963l1.361-1.644c1.712-1.945 2.986-3.642 3.824-5.093.769-1.308 1.484-2.758 2.148-4.35.698-1.627 1.414-3.766 2.148-6.419.663-2.37 2.095-3.554 4.295-3.554 1.571 0 2.671.725 3.3 2.175.384.849.856 1.485 1.414 1.91.594.389 1.502.584 2.724.584.594 0 1.187-.071 1.781-.212s1.118-.301 1.572-.477l.942-.318c1.013-.424 1.746-.637 2.2-.637.594 0 1.066.177 1.415.531s.524.884.524 1.591c0 1.627-.629 2.935-1.886 3.925-3.388 2.652-5.78 4.774-7.176 6.366-1.362 1.556-2.043 3.112-2.043 4.668 0 1.768 1.082 2.652 3.247 2.652 1.642 0 3.527-.53 5.658-1.591 2.13-1.096 3.928-2.564 5.395-4.403.384-.495.855-.743 1.414-.743z"/><path id="I" d="M177.883 96.129c-1.571 0-2.863-.725-3.876-2.175-.978-1.485-1.467-3.324-1.467-5.517 0-2.652.175-5.075.524-7.267.349-2.228.925-4.58 1.729-7.055.349-1.061.838-1.821 1.466-2.281s1.624-.69 2.986-.69c.768 0 1.292.124 1.572.371.314.248.471.619.471 1.114 0 .283-.192 1.238-.576 2.864l-.838 3.554-1.048 7.427c0 .743.087 1.273.262 1.591.175.283.454.424.838.424.524 0 1.17-.53 1.938-1.591.803-1.061 1.641-2.67 2.514-4.827.908-2.157 1.781-4.81 2.62-7.957.279-1.061.698-1.821 1.257-2.281.593-.46 1.466-.69 2.619-.69.803 0 1.362.106 1.676.318.314.177.471.53.471 1.061 0 .884-.436 3.307-1.309 7.267l-1.467 8.381c0 .672.14 1.202.419 1.591.28.354.646.53 1.1.53.699 0 1.519-.424 2.462-1.273.978-.884 2.27-2.299 3.876-4.244.42-.495.891-.743 1.415-.743.454 0 .803.212 1.047.637.28.424.419 1.008.419 1.75 0 1.415-.331 2.511-.995 3.289-1.501 1.874-3.125 3.413-4.871 4.615-1.711 1.202-3.667 1.804-5.867 1.804-1.676 0-2.916-.654-3.719-1.963-.768-1.309-1.153-3.147-1.153-5.517-.593 2.405-1.484 4.261-2.671 5.57-1.187 1.273-2.462 1.91-3.824 1.91z"/><path id="J" d="M200.455 96.129c-1.327 0-2.27-.707-2.828-2.122-.524-1.415-.786-3.678-.786-6.79 0-4.597.646-8.965 1.938-13.103.314-1.026.821-1.768 1.519-2.228.733-.495 1.746-.743 3.038-.743.699 0 1.187.088 1.467.265s.419.513.419 1.008c0 .566-.262 1.839-.786 3.819l-.471 1.698c-.21.884-.419 1.927-.629 3.13-.174 1.167-.297 2.458-.367 3.872 1.258-4.951 2.847-8.487 4.767-10.609s4.243-3.183 6.967-3.183c1.816 0 3.23.584 4.243 1.751 1.048 1.132 1.571 2.599 1.571 4.403 0 1.485-.331 2.741-.995 3.766-.628 1.026-1.467 1.538-2.514 1.538-.664 0-1.205-.159-1.624-.477-.384-.318-.576-.76-.576-1.326 0-.248.035-.53.105-.849l.157-.69c.174-.53.262-1.025.262-1.485 0-.955-.454-1.432-1.362-1.432-.699 0-1.38.371-2.043 1.114-.664.707-1.205 1.68-1.624 2.918-.384 1.202-.576 2.511-.576 3.925 0 1.91.436 3.448 1.309 4.615.873 1.132 2.13 1.698 3.772 1.698 1.292 0 2.444-.424 3.457-1.273 1.013-.884 2.41-2.405 4.191-4.562.419-.495.89-.743 1.414-.743.454 0 .803.212 1.047.637.28.424.42 1.008.42 1.75 0 1.415-.332 2.511-.996 3.289-1.571 1.91-3.143 3.466-4.714 4.668-1.572 1.167-3.353 1.751-5.343 1.751-1.641 0-3.143-.354-4.505-1.061-1.327-.743-2.409-1.627-3.248-2.652s-1.379-2.016-1.623-2.971c-.07.283-.332 1.273-.786 2.971-.384 1.414-.838 2.387-1.362 2.917-.489.531-1.257.796-2.305.796z"/><path id="K" d="M247.8 79.579c.454 0 .803.23 1.048.69s.366 1.043.366 1.751c0 1.697-.506 2.705-1.519 3.024-2.095.743-4.4 1.167-6.914 1.273-.664 2.971-1.973 5.358-3.929 7.161-1.955 1.768-4.173 2.652-6.652 2.652-2.095 0-3.894-.513-5.395-1.538-1.467-1.026-2.585-2.387-3.353-4.085s-1.152-3.536-1.152-5.517c0-2.688.506-5.075 1.519-7.161 1.012-2.122 2.409-3.766 4.19-4.933 1.781-1.202 3.754-1.804 5.919-1.804 2.654 0 4.785.937 6.391 2.812 1.641 1.839 2.602 4.12 2.881 6.843 1.641-.106 3.597-.46 5.867-1.061.279-.071.524-.106.733-.106zm-17.181 10.928c1.117 0 2.078-.46 2.881-1.379.838-.919 1.397-2.246 1.676-3.979-1.082-.743-1.921-1.715-2.514-2.918a8.95 8.95 0 0 1-.838-3.819c0-.566.052-1.132.157-1.698h-.262c-1.397 0-2.567.69-3.51 2.069-.908 1.344-1.362 3.254-1.362 5.729 0 1.945.367 3.43 1.1 4.456.769 1.026 1.659 1.538 2.672 1.538z"/><path id="L" d="M272.586 79.579c.454 0 .803.23 1.047.69s.367 1.043.367 1.751c0 .884-.122 1.574-.367 2.069-.244.46-.628.778-1.152.955-2.095.743-4.4 1.167-6.914 1.273-.699 2.935-2.026 5.305-3.981 7.108-1.921 1.803-4.051 2.705-6.391 2.705-3.527 0-6.094-1.362-7.7-4.085s-2.41-6.666-2.41-11.829c0-4.562.559-9.513 1.676-14.853 1.118-5.375 2.742-9.937 4.872-13.686 2.165-3.784 4.732-5.676 7.7-5.676 1.606 0 2.899.707 3.876 2.122.978 1.379 1.467 3.183 1.467 5.411 0 2.9-.541 5.782-1.624 8.647s-2.881 5.871-5.395 9.018c2.34.177 4.243 1.167 5.709 2.971 1.467 1.768 2.34 3.961 2.62 6.578 1.641-.106 3.596-.46 5.866-1.061a2.3 2.3 0 0 1 .734-.106zm-14.458-28.327c-.698 0-1.466 1.061-2.304 3.183-.804 2.087-1.554 4.933-2.253 8.541s-1.222 7.55-1.571 11.829c2.304-4.279 4.138-8.045 5.5-11.299 1.397-3.289 2.095-6.206 2.095-8.753 0-1.132-.14-1.998-.419-2.599-.244-.601-.594-.902-1.048-.902zm-2.724 39.255c1.083 0 2.043-.46 2.881-1.379s1.397-2.246 1.677-3.979a7.5 7.5 0 0 1-2.515-2.918c-.558-1.202-.838-2.475-.838-3.819 0-.495.07-1.167.21-2.016h-.157c-1.432 0-2.637.725-3.615 2.175-.943 1.415-1.414 3.324-1.414 5.729 0 2.016.367 3.554 1.1 4.615.768 1.061 1.659 1.591 2.671 1.591z"/><path id="M" d="M93.881 37.77c0-2.805-1.648-4.207-4.945-4.207h-3.359c.871-5.734 1.866-11.25 2.986-16.548.124-.436.187-1.059.187-1.87 0-2.742-1.586-4.113-4.758-4.113-1.99 0-3.546.53-4.665 1.589-1.12.997-1.928 2.462-2.426 4.394-1.306 5.235-2.333 10.751-3.079 16.548H59.452c2.488-6.856 6.78-15.862 12.876-27.018.622-1.06.933-2.119.933-3.179 0-.997-.373-1.807-1.12-2.431C71.457.312 70.431 0 69.062 0c-2.55 0-4.447.467-5.692 1.402-1.182.873-2.364 2.4-3.546 4.581-5.474 10.159-9.579 19.228-12.316 27.205-.435 1.309-.653 2.555-.653 3.74 0 1.995.529 3.615 1.586 4.861s2.27 1.87 3.639 1.87l20.527.093-.467 4.581c-.062.374-.093.904-.093 1.589 0 4.051 1.648 6.077 4.945 6.077 2.301 0 3.95-.499 4.945-1.496 1.058-.997 1.68-2.929 1.866-5.796l.373-4.955h1.959c2.675 0 4.634-.436 5.878-1.309s1.866-2.431 1.866-4.675zm12.051 11.312c3.358 3.989 8.086 5.983 14.182 5.983 4.665 0 8.739-1.34 12.223-4.02 3.545-2.68 6.282-6.42 8.21-11.219 1.991-4.861 2.986-10.44 2.986-16.735 0-7.417-1.679-13.12-5.038-17.108C135.198 1.994 130.502 0 124.406 0c-4.665 0-8.771 1.34-12.316 4.02-3.484 2.68-6.221 6.451-8.211 11.312-1.928 4.799-2.893 10.346-2.893 16.641 0 7.417 1.649 13.12 4.946 17.109zm23.046-10.097c-1.929 3.739-4.572 5.609-7.931 5.609-2.799 0-4.914-1.122-6.345-3.366-1.368-2.244-2.053-5.516-2.053-9.816 0-6.42.965-11.499 2.893-15.239 1.928-3.802 4.572-5.703 7.931-5.703 2.737 0 4.82 1.153 6.251 3.459 1.431 2.244 2.146 5.516 2.146 9.816 0 6.42-.964 11.499-2.892 15.239zm41.797 16.08c-6.096 0-10.823-1.994-14.182-5.983-3.297-3.989-4.945-9.692-4.945-17.109 0-6.295.964-11.842 2.892-16.641 1.991-4.861 4.728-8.632 8.211-11.312C166.297 1.34 170.402 0 175.067 0c6.096 0 10.792 1.994 14.089 5.983 3.359 3.989 5.039 9.692 5.039 17.109 0 6.295-.996 11.873-2.986 16.735-1.928 4.799-4.665 8.539-8.211 11.219-3.483 2.68-7.558 4.02-12.223 4.02zm.933-10.471c3.359 0 6.003-1.87 7.931-5.609s2.893-8.819 2.893-15.239c0-4.301-.716-7.573-2.146-9.816-1.431-2.306-3.515-3.459-6.252-3.459-3.359 0-6.002 1.901-7.931 5.703-1.928 3.74-2.892 8.819-2.892 15.239 0 4.3.684 7.573 2.052 9.816 1.431 2.244 3.546 3.366 6.345 3.366zm35.546 4.488c3.359 3.989 8.087 5.983 14.183 5.983 4.665 0 8.739-1.34 12.222-4.02 3.546-2.68 6.283-6.42 8.211-11.219 1.991-4.861 2.986-10.44 2.986-16.735 0-7.417-1.68-13.12-5.038-17.108C236.521 1.994 231.824 0 225.729 0c-4.666 0-8.771 1.34-12.317 4.02-3.483 2.68-6.22 6.451-8.21 11.312-1.929 4.799-2.893 10.346-2.893 16.641 0 7.417 1.649 13.12 4.945 17.109zM230.3 38.985c-1.928 3.739-4.571 5.609-7.93 5.609-2.8 0-4.914-1.122-6.345-3.366-1.369-2.244-2.053-5.516-2.053-9.816 0-6.42.964-11.499 2.893-15.239 1.928-3.802 4.572-5.703 7.931-5.703 2.736 0 4.82 1.153 6.251 3.459 1.431 2.244 2.146 5.516 2.146 9.816 0 6.42-.964 11.499-2.893 15.239zM22.01 22.482c.145-1.106.652-2.094 1.568-2.796a4.4 4.4 0 0 1 2.776-.921c1.018.013 1.973.351 2.753 1.058.959.869 1.243 2.051 1.092 3.201l-.703 5.348 4.484.056c1.005.013 2.034.352 2.774 1.246.62.749.9 1.649.889 2.589-.014 1.131-.419 2.149-1.122 3.006-.822 1.009-1.962 1.474-3.205 1.458l-4.962-.062-.765 5.817-.005.03c-.184 1.114-.72 2.1-1.659 2.79-.823.624-1.781.919-2.798.906s-1.984-.352-2.756-1.098l-.023-.022-.022-.023c-.876-.907-1.06-2.081-.925-3.148v-.004l.704-5.352-4.444-.056c-1.005-.013-2.034-.352-2.774-1.246l-.02-.024-.019-.025c-.582-.754-.861-1.641-.85-2.581.014-1.105.388-2.112 1.078-2.962l.017-.021.018-.021c.839-.972 1.97-1.435 3.213-1.42l4.922.062.761-5.787z"/></defs></svg>